<?xml version="1.0" standalone="no"?>
<!DOCTYPE svg PUBLIC "-//W3C//DTD SVG 20010904//EN"
 "http://www.w3.org/TR/2001/REC-SVG-20010904/DTD/svg10.dtd">
<svg version="1.0" xmlns="http://www.w3.org/2000/svg"
 width="512.000000pt" height="512.000000pt" viewBox="0 0 512.000000 512.000000"
 preserveAspectRatio="xMidYMid meet">

<g transform="translate(0.000000,512.000000) scale(0.100000,-0.100000)"
fill="#000000" stroke="none">
<path d="M3697 4758 c-169 -401 -638 -1490 -663 -1538 -57 -108 -84 -135 -159
-155 -61 -17 -66 -20 -63 -44 l3 -26 280 0 280 0 3 26 c3 25 0 27 -55 34 -171
21 -180 68 -63 343 l73 172 331 0 331 0 52 -128 c128 -310 126 -358 -16 -385
-57 -11 -61 -13 -61 -39 l0 -28 350 0 350 0 0 28 c0 26 -4 29 -61 41 -85 17
-135 65 -192 184 -25 51 -181 419 -348 819 -297 712 -305 728 -331 728 -22 0
-31 -7 -41 -32z m117 -758 l133 -315 -138 -3 c-76 -1 -203 -1 -282 0 l-144 3
141 327 c90 210 144 323 149 315 5 -6 68 -154 141 -327z"/>
<path d="M584 4696 c-13 -33 3 -43 74 -48 71 -5 119 -25 140 -59 7 -10 16 -49
22 -86 12 -85 13 -1213 1 -1306 -14 -105 -49 -135 -165 -146 -67 -6 -71 -7
-71 -31 l0 -25 373 -3 372 -2 0 29 c0 28 0 28 -74 33 -81 5 -114 21 -143 65
-16 24 -18 61 -21 345 l-3 319 82 -3 83 -3 284 -392 284 -393 234 0 234 0 0
29 c0 27 -3 29 -62 40 -100 19 -177 62 -249 139 -49 52 -417 547 -453 609 -4
8 8 16 36 23 84 22 187 80 242 135 126 126 158 320 79 482 -33 67 -135 166
-205 198 -116 53 -158 57 -640 62 -403 4 -449 3 -454 -11z m778 -117 c69 -15
100 -31 155 -82 70 -64 96 -124 101 -232 3 -75 0 -100 -18 -148 -55 -145 -222
-236 -437 -237 l-73 0 0 345 0 344 33 5 c72 12 84 13 134 15 29 0 76 -4 105
-10z"/>
<path d="M2375 2740 c-318 -69 -488 -377 -356 -645 58 -117 157 -197 471 -380
102 -60 200 -118 218 -130 l33 -22 -72 -7 c-153 -16 -286 -82 -358 -180 -53
-71 -66 -110 -65 -189 l1 -69 -44 44 c-24 24 -57 70 -73 103 -28 59 -70 201
-70 238 0 15 -6 18 -32 15 l-33 -3 0 -300 0 -300 33 -3 c27 -3 32 0 32 18 0
24 18 61 34 72 21 14 54 8 202 -37 98 -30 176 -47 231 -52 l84 -6 -91 -48
c-222 -117 -317 -232 -328 -394 -9 -141 49 -273 151 -339 68 -46 130 -60 223
-53 95 7 167 40 293 136 52 39 98 71 103 71 4 0 8 -15 8 -33 0 -43 38 -115 73
-141 23 -17 43 -21 100 -21 97 1 157 33 260 136 73 74 77 81 77 123 0 26 -5
46 -12 49 -7 2 -38 -20 -69 -49 -68 -64 -102 -76 -132 -45 -22 21 -22 27 -28
494 -7 516 -8 532 -67 613 -16 22 -32 60 -36 85 -10 69 -60 164 -118 226 -61
64 -144 122 -313 217 -416 235 -494 301 -503 427 -6 82 16 135 82 197 38 36
69 55 106 66 186 55 418 -49 504 -226 30 -61 66 -186 66 -231 0 -26 3 -28 33
-25 l32 3 0 300 0 300 -31 3 c-28 3 -31 0 -40 -35 -6 -25 -18 -43 -37 -53 -25
-14 -32 -13 -105 14 -42 15 -106 37 -142 48 -73 22 -233 32 -295 18z m419
-1311 c65 -16 95 -46 102 -100 16 -123 -71 -248 -201 -288 -37 -12 -91 -21
-120 -21 -64 0 -145 11 -145 19 0 3 14 14 30 23 43 24 60 72 60 168 0 50 5 91
14 108 44 84 147 120 260 91z m166 -764 l0 -255 -75 -50 c-127 -82 -210 -105
-278 -76 -82 34 -137 124 -137 226 0 150 87 238 345 352 72 31 133 57 138 57
4 1 7 -114 7 -254z"/>
<path d="M3855 2210 c-241 -99 -230 -92 -209 -131 12 -25 20 -30 37 -24 57 17
118 18 137 0 38 -35 41 -90 38 -951 -3 -773 -4 -832 -21 -857 -26 -40 -59 -58
-121 -64 -56 -6 -56 -6 -56 -39 l0 -34 350 0 350 0 0 34 0 33 -69 7 c-72 7
-109 26 -134 69 -9 17 -13 252 -17 1027 l-5 1005 -45 2 c-36 2 -83 -14 -235
-77z"/>
<path d="M1242 1545 c-181 -40 -355 -180 -445 -360 -61 -122 -72 -177 -72
-380 0 -205 10 -255 77 -394 73 -152 230 -286 383 -326 251 -65 515 69 646
327 24 48 79 213 79 238 0 10 -50 31 -60 25 -4 -3 -21 -33 -38 -68 -70 -148
-160 -229 -292 -263 -232 -59 -432 94 -511 392 -28 105 -30 299 -5 393 35 128
113 239 200 281 55 26 149 36 205 20 82 -22 118 -76 136 -202 12 -91 77 -148
170 -148 103 0 160 60 151 158 -12 136 -173 278 -351 311 -78 15 -195 13 -273
-4z"/>
</g>
</svg>
